# xmcd
#
# Track frame offsets:
#	150
#	20101
#	37508
#	58410
#	77354
#	90690
#	113200
#	139925
#	159647
#	178575
#	208125
#	231354
#	269005
#	284571
#	316691
#
# Disc length: 4636 seconds
#
# Revision: 0
# Processed by: cddbd v1.5.2PL0 Copyright (c) Steve Scherf et al.
# Submitted via: SynApp - FreeCDDB Version: 2.5
#
DISCID=d7121a0f
DTITLE=Stevie Wonder - Stevie Wonder Mixed
DYEAR=2003
DGENRE=Soul
TTITLE0=G:\stevie wonder - Superstition.wav
TTITLE1=G:\stevie wonder - Sir Duke.wav
TTITLE2=G:\stevie wonder - I Ain't Gonna Stand For It.wav
TTITLE3=G:\stevie wonder - Part-Time Lover.wav
TTITLE4=G:\stevie wonder - You Are The Sunshine Of My Life.wav
TTITLE5=G:\stevie wonder - For Your Love.wav
TTITLE6=G:\stevie wonder - Happy Birthday.wav
TTITLE7=G:\stevie wonder - I Just Called To Say I Love You.wav
TTITLE8=G:\stevie wonder - I Wish.wav
TTITLE9=G:\stevie wonder - Isn't She Lovely.wav
TTITLE10=G:\stevie wonder - Master Blaster (Jammin').wav
TTITLE11=G:\stevie wonder - Another Star.wav
TTITLE12=G:\stevie wonder - Pastime Paradise.wav
TTITLE13=G:\stevie wonder - As.wav
TTITLE14=G:\stevie wonder - Love Light In Flight.wav
EXTD=
EXTT0=
EXTT1=
EXTT2=
EXTT3=
EXTT4=
EXTT5=
EXTT6=
EXTT7=
EXTT8=
EXTT9=
EXTT10=
EXTT11=
EXTT12=
EXTT13=
EXTT14=
PLAYORDER=
